<svg xmlns="http://www.w3.org/2000/svg" width="18.667" height="18.667" preserveAspectRatio="xMidYMid meet" version="1.0" viewBox="0 0 14 14"><g fill="#000" stroke="none"><path d="M14 127 c-3 -8 -4 -39 -2 -68 l3 -54 41 -3 c58 -4 76 16 72 82 l-3 51 -53 3 c-38 2 -54 -1 -58 -11z m106 -45 c0 -58 -12 -72 -62 -72 l-38 0 0 60 0 60 50 0 50 0 0 -48z" transform="translate(0.000000,14.000000) scale(0.100000,-0.100000)"/><path d="M48 93 c6 -2 18 -2 25 0 6 3 1 5 -13 5 -14 0 -19 -2 -12 -5z" transform="translate(0.000000,14.000000) scale(0.100000,-0.100000)"/><path d="M53 63 c9 -2 25 -2 35 0 9 3 1 5 -18 5 -19 0 -27 -2 -17 -5z" transform="translate(0.000000,14.000000) scale(0.100000,-0.100000)"/></g></svg>