<svg xmlns="http://www.w3.org/2000/svg" width="18.667" height="18.667" preserveAspectRatio="xMidYMid meet" version="1.0" viewBox="0 0 14 14"><g fill="#000" stroke="none"><path d="M15 123 c-5 -15 -4 -16 6 -5 7 6 29 12 49 12 20 0 42 -6 49 -12 10 -11 11 -10 6 5 -6 13 -19 17 -55 17 -36 0 -49 -4 -55 -17z" transform="translate(0.000000,14.000000) scale(0.100000,-0.100000)"/><path d="M1 89 c-1 -26 20 -36 74 -37 50 0 65 9 64 38 0 8 -4 5 -9 -7 -11 -27 -27 -30 -33 -5 -4 16 -5 16 -6 0 0 -10 -8 -18 -16 -18 -7 0 -19 8 -24 18 -10 16 -10 16 -11 0 0 -25 -19 -22 -30 5 -6 15 -9 17 -9 6z" transform="translate(0.000000,14.000000) scale(0.100000,-0.100000)"/><path d="M14 20 c2 -22 110 -22 112 0 0 9 -1 10 -3 3 -6 -17 -100 -17 -106 0 -2 7 -3 6 -3 -3z" transform="translate(0.000000,14.000000) scale(0.100000,-0.100000)"/></g></svg>